<?xml version="1.0" encoding="UTF-8" standalone="no"?>
<svg
   xmlns:dc="http://purl.org/dc/elements/1.1/"
   xmlns:cc="http://creativecommons.org/ns#"
   xmlns:rdf="http://www.w3.org/1999/02/22-rdf-syntax-ns#"
   xmlns:svg="http://www.w3.org/2000/svg"
   xmlns="http://www.w3.org/2000/svg"
   xmlns:sodipodi="http://sodipodi.sourceforge.net/DTD/sodipodi-0.dtd"
   xmlns:inkscape="http://www.inkscape.org/namespaces/inkscape"
   sodipodi:docname="Joystick_bg.svg"
   inkscape:version="1.0 (4035a4fb49, 2020-05-01)"
   id="svg8"
   version="1.1"
   viewBox="0 0 16.933333 16.933334"
   height="64"
   width="64">
  <defs
     id="defs2" />
  <sodipodi:namedview
     inkscape:window-maximized="1"
     inkscape:window-y="-8"
     inkscape:window-x="1072"
     inkscape:window-height="1027"
     inkscape:window-width="1920"
     units="px"
     showgrid="true"
     inkscape:document-rotation="0"
     inkscape:current-layer="layer1"
     inkscape:document-units="mm"
     inkscape:cy="31.467613"
     inkscape:cx="20.95074"
     inkscape:zoom="7.7126065"
     inkscape:pageshadow="2"
     inkscape:pageopacity="0.0"
     borderopacity="1.0"
     bordercolor="#666666"
     pagecolor="#ffffff"
     id="base">
    <inkscape:grid
       empspacing="8"
       spacingy="0.13229167"
       spacingx="0.13229167"
       id="grid833"
       type="xygrid" />
  </sodipodi:namedview>
  <metadata
     id="metadata5">
    <rdf:RDF>
      <cc:Work
         rdf:about="">
        <dc:format>image/svg+xml</dc:format>
        <dc:type
           rdf:resource="http://purl.org/dc/dcmitype/StillImage" />
        <dc:title></dc:title>
      </cc:Work>
    </rdf:RDF>
  </metadata>
  <g
     id="layer1"
     inkscape:groupmode="layer"
     inkscape:label="Ebene 1">
    <path
       transform="scale(0.26458333)"
       d="M 15.5 0 L 15.5 15.5 L 0 15.5 L 0 16.5 L 15.5 16.5 L 15.5 31 L 0 31 L 0 33 L 15.5 33 L 15.5 47.5 L 0 47.5 L 0 48.5 L 15.5 48.5 L 15.5 64 L 16.5 64 L 16.5 48.5 L 31 48.5 L 31 64 L 33 64 L 33 48.5 L 47.5 48.5 L 47.5 64 L 48.5 64 L 48.5 48.5 L 64 48.5 L 64 47.5 L 48.5 47.5 L 48.5 33 L 64 33 L 64 31 L 48.5 31 L 48.5 16.5 L 64 16.5 L 64 15.5 L 48.5 15.5 L 48.5 0 L 47.5 0 L 47.5 15.5 L 33 15.5 L 33 0 L 31 0 L 31 15.5 L 16.5 15.5 L 16.5 0 L 15.5 0 z M 16.5 16.5 L 31 16.5 L 31 31 L 16.5 31 L 16.5 16.5 z M 33 16.5 L 47.5 16.5 L 47.5 31 L 33 31 L 33 16.5 z M 16.5 33 L 31 33 L 31 47.5 L 16.5 47.5 L 16.5 33 z M 33 33 L 47.5 33 L 47.5 47.5 L 33 47.5 L 33 33 z "
       style="fill:#ffffff;fill-opacity:0.5;stroke:none;stroke-width:3;stroke-linecap:round"
       id="rect835-9" />
  </g>
</svg>
