<?xml version="1.0" encoding="UTF-8" standalone="no"?>
<svg
   width="322"
   height="276"
   viewBox="0 0 85.19583 73.025003"
   version="1.1"
   id="svg8"
   sodipodi:docname="move-menu.svg"
   inkscape:version="1.1 (c68e22c387, 2021-05-23)"
   inkscape:export-filename="P:\Projects\PlasticSCM\CVR-Game\Assets\StreamingAssets\Cohtml\UIResources\GameUI\gfx\move-menu.png"
   inkscape:export-xdpi="192"
   inkscape:export-ydpi="192"
   xmlns:inkscape="http://www.inkscape.org/namespaces/inkscape"
   xmlns:sodipodi="http://sodipodi.sourceforge.net/DTD/sodipodi-0.dtd"
   xmlns="http://www.w3.org/2000/svg"
   xmlns:svg="http://www.w3.org/2000/svg"
   xmlns:rdf="http://www.w3.org/1999/02/22-rdf-syntax-ns#"
   xmlns:cc="http://creativecommons.org/ns#"
   xmlns:dc="http://purl.org/dc/elements/1.1/">
  <sodipodi:namedview
     id="namedview7"
     pagecolor="#ffffff"
     bordercolor="#666666"
     borderopacity="1.0"
     inkscape:pageshadow="2"
     inkscape:pageopacity="0.0"
     inkscape:pagecheckerboard="0"
     inkscape:document-units="mm"
     showgrid="false"
     fit-margin-top="0"
     fit-margin-left="0"
     fit-margin-right="0"
     fit-margin-bottom="0"
     units="px"
     width="322px"
     inkscape:zoom="3.1108586"
     inkscape:cx="134.20732"
     inkscape:cy="131.95714"
     inkscape:window-width="2560"
     inkscape:window-height="1387"
     inkscape:window-x="1072"
     inkscape:window-y="270"
     inkscape:window-maximized="1"
     inkscape:current-layer="svg8" />
  <defs
     id="defs2" />
  <metadata
     id="metadata5">
    <rdf:RDF>
      <cc:Work
         rdf:about="">
        <dc:format>image/svg+xml</dc:format>
        <dc:type
           rdf:resource="http://purl.org/dc/dcmitype/StillImage" />
      </cc:Work>
    </rdf:RDF>
  </metadata>
  <g
     id="layer1"
     transform="matrix(0.99794524,0,0,0.99794524,-22.405726,-7.4307572)"
     style="fill:#ffffff">
    <path
       id="path833"
       style="fill:#ffffff;stroke-width:7.68253"
       d="m 107.9043,28.142578 c -13.060322,0 -23.046878,9.988512 -23.046878,23.048828 V 74.238281 H 407.52344 V 51.191406 c 0,-13.060316 -9.98653,-23.048828 -23.04688,-23.048828 z m 7.68359,15.365234 c 4.24076,0 7.68164,3.442832 7.68164,7.683594 0,4.240762 -3.44088,7.681641 -7.68164,7.681641 -4.24076,0 -7.68359,-3.440879 -7.68359,-7.681641 0,-4.240762 3.44283,-7.683593 7.68359,-7.683594 z m 23.04688,0 c 4.24076,0 7.68359,3.442832 7.68359,7.683594 0,4.240762 -3.44283,7.681641 -7.68359,7.681641 -4.24077,0 -7.68164,-3.440879 -7.68165,-7.681641 0,-4.240762 3.44088,-7.683593 7.68165,-7.683594 z m 23.04687,0 c 4.24076,0 7.68359,3.442832 7.68359,7.683594 0,4.240762 -3.44283,7.681641 -7.68359,7.681641 -4.24076,0 -7.68164,-3.440879 -7.68164,-7.681641 0,-4.240762 3.44088,-7.683593 7.68164,-7.683594 z M 84.857422,89.603516 V 281.66602 c 0,12.72997 10.316901,23.04882 23.046878,23.04882 h 268.10742 c -0.33044,-0.28959 -0.53249,-0.46519 -0.87305,-0.76367 -4.85065,-4.25139 -10.61141,-9.31471 -14.30273,-12.55469 -1.2455,-1.0936 -2.66684,-1.87461 -4.25586,-2.34179 -4.95532,-1.45591 -14.61794,-4.20149 -18.29297,-4.89063 -2.06755,-0.38792 -4.13934,-1.08009 -6.07422,-2.18945 l -11.28516,-6.48242 c -2.27284,-1.30648 -3.2455,-1.63884 -4.44921,-1.88281 l -20.47657,-4.14454 c -5.76481,-1.16604 -10.0579,-6.08559 -10.4414,-11.95117 a 3.7772612,3.7772612 0 0 1 -0.006,-0.004 c -0.24514,-3.78946 1.15452,-7.54563 3.91406,-10.22071 6.55047,-6.34852 19.55049,-12.3466 38.59375,-9.21094 4.21418,0.69486 8.54424,-1.6707 9.79102,-5.5 1.00835,-3.10052 1.20424,-6.89118 0.54492,-11.27539 l -8.03125,-19.62304 -22.10157,8.40039 c -5.14988,1.95694 -10.78311,0.7777 -14.6875,-2.63867 -1.72964,-1.51346 -3.12959,-3.47028 -3.99609,-5.75 -2.8265,-7.43177 0.95951,-15.85675 8.39453,-18.67969 l 7.76563,-2.94727 -18.96289,-5.50586 a 3.7772612,3.7772612 0 0 1 -0.0312,-0.01 c -8.36022,-2.51663 -12.98417,-11.62439 -10.08594,-19.86133 2.58345,-7.34232 10.30741,-11.51735 17.82812,-9.86719 a 3.7772612,3.7772612 0 0 1 0.86719,0.15235 l 19.26367,5.54296 -3.13671,-2.73437 c -6.24643,-5.45303 -6.89577,-15.04944 -1.43946,-21.28516 5.46101,-6.24108 15.06909,-6.86755 21.29883,-1.38867 l 0.006,0.006 30,26.39649 c 2.12915,1.84127 3.91622,4.23519 4.9707,6.97656 l 22.90039,59.55859 a 3.7772612,3.7772612 0 0 1 0,0.0117 c 3.31863,8.67859 10.76127,19.54754 18.30274,27.95117 V 89.603516 Z m 104.474608,23.488284 26.71875,26.71875 c 1.57032,1.5 2.21486,3.72656 1.67578,5.83593 -0.53903,2.09766 -2.16795,3.75 -4.26562,4.3125 -2.09764,0.5625 -4.33596,-0.0586 -5.84766,-1.61718 l -12.28125,-12.28125 v 45.75 h 45.75 L 228.80078,169.5293 c -1.6992,-1.61719 -2.29688,-4.07813 -1.52344,-6.30469 0.76173,-2.21485 2.7539,-3.78516 5.08594,-4.00781 0.18754,-0.0117 0.37504,-0.0117 0.5625,0 1.62894,0.0117 3.18749,0.6914 4.3125,1.875 l 22.5,22.5 4.3125,4.21875 -4.3125,4.21875 -22.5,22.5 c -1.4414,1.79295 -3.77344,2.60155 -6.01172,2.08593 -2.24999,-0.51563 -3.99608,-2.26172 -4.51172,-4.51171 -0.5156,-2.23829 0.29297,-4.57032 2.08594,-6.01172 l 12.28125,-12.28125 h -45.75 v 45.84375 l 12.28125,-12.28125 c 1.4414,-1.79299 3.77345,-2.60156 6.01172,-2.08594 2.24999,0.51563 3.99608,2.26172 4.51172,4.51172 0.5156,2.23828 -0.29297,4.57031 -2.08594,6.01172 l -22.5,22.5 -4.21875,4.3125 -4.21875,-4.3125 -22.5,-22.5 c -1.74603,-1.69922 -2.30861,-4.27735 -1.39453,-6.53907 0.90232,-2.26172 3.08204,-3.75 5.51953,-3.77343 1.62894,0.0117 3.18749,0.69141 4.3125,1.875 l 12.28125,12.28125 v -45.84375 h -45.9375 l 12.28125,12.28125 c 1.79305,1.4414 2.60154,3.77343 2.08594,6.01172 -0.51564,2.24999 -2.26173,3.99608 -4.51172,4.51171 -2.23827,0.51562 -4.57032,-0.29296 -6.01172,-2.08593 l -26.71875,-26.71875 26.71875,-26.71875 c 1.07811,-1.13672 2.55468,-1.81642 4.125,-1.875 2.47264,-0.0586 4.72265,1.40625 5.67188,3.67968 0.96094,2.28516 0.42187,4.91016 -1.35938,6.63282 l -12.28125,12.28125 h 45.9375 v -45.75 l -12.28125,12.28125 c -1.51173,1.5586 -3.75002,2.17968 -5.84766,1.61718 -2.09766,-0.5625 -3.72655,-2.21484 -4.26562,-4.3125 -0.53904,-2.10937 0.10546,-4.33593 1.67578,-5.83593 z m 132.28125,15.79101 c -2.16019,-0.0688 -4.32683,0.80741 -5.88476,2.58789 -2.76608,3.1612 -2.45264,7.84896 0.71875,10.61719 l 15.29882,13.35547 9.1836,2.64453 c 2.75065,0.79279 5.24537,2.18496 7.33203,4.04297 2.08668,1.85798 3.76113,4.17794 4.86523,6.81836 l 7.29297,17.18359 a 3.7776491,3.7776491 0 1 1 -6.95312,2.95117 l -7.30078,-17.19921 a 3.7772612,3.7772612 0 0 1 0,-0.0195 c -1.32533,-3.16948 -4.02148,-5.56274 -7.32618,-6.51757 l -9.29492,-2.67383 a 3.7772612,3.7772612 0 0 1 -0.60937,-0.1211 L 293.30273,152.25 c -4.01934,-1.12347 -8.13014,1.0152 -9.51367,4.94727 -1.50239,4.26988 0.79663,8.80517 5.12696,10.11328 l 0.006,0.006 37.60937,10.91211 a 3.7772612,3.7772612 0 0 1 2.30078,1.88476 l 3.99219,7.67969 a 3.7772612,3.7772612 0 0 1 0.14062,0.31055 l 12.67578,30.93945 a 3.7772612,3.7772612 0 0 1 0.23438,0.8418 c 0.85832,5.42092 0.63579,10.49002 -0.83984,15.02734 -2.49459,7.66178 -10.48388,11.89128 -18.19922,10.61914 -16.98833,-2.7973 -27.42772,2.65006 -32.10547,7.18359 -1.14239,1.10742 -1.73869,2.66997 -1.63281,4.30664 0.16361,2.50244 1.9482,4.54227 4.40429,5.03907 l 20.47657,4.14453 c 1.9762,0.40055 4.03519,1.19826 6.71093,2.73633 l 11.28516,6.48437 c 1.09298,0.62664 2.33528,1.0605 3.69922,1.31641 4.7491,0.89056 14.02771,3.58874 19.03711,5.06054 a 3.7772612,3.7772612 0 0 1 0.006,0.006 c 2.62624,0.77212 5.03959,2.09918 7.09765,3.90625 3.69461,3.24285 9.45982,8.31033 14.30469,12.55664 2.42245,2.12312 4.616,4.04578 6.20117,5.42579 0.41229,0.35894 0.64976,0.56106 0.97266,0.83984 11.40022,-1.38974 20.23047,-11.09521 20.23047,-22.87109 v -24.79493 c -9.9788,-9.41331 -20.57829,-23.62932 -25.35352,-36.11328 L 359.27176,161.1995 c -0.32477,-0.84432 -2.04416,-3.26819 -2.86328,-3.97656 a 3.7772612,3.7772612 0 0 1 -0.0234,-0.0176 L 326.35742,130.7832 a 3.7772612,3.7772612 0 0 1 -0.006,-0.006 c -1.38221,-1.21681 -3.05813,-1.84103 -4.73828,-1.89453 z m -3.81836,54.66992 -17.13672,6.52149 c -3.61267,1.37166 -5.38284,5.31944 -4.00976,8.92969 0.42535,1.11908 1.0758,2.02896 1.90429,2.7539 1.85997,1.62749 4.52142,2.21713 7.02539,1.26563 l 21.91993,-8.33399 -1.45703,-3.56836 -3.16016,-6.08789 z"
       transform="scale(0.26458333)" />
  </g>
</svg>
